HIERARCHY
ROOT Hips
{
	OFFSET 0.000000 0.000000 0.000000
	CHANNELS 6 Xposition Yposition Zposition Yrotation Xrotation Zrotation
	JOINT Chest
	{
		OFFSET 0.000000 -0.009281 11.569106
		CHANNELS 3 Yrotation Xrotation Zrotation
		JOINT Chest2
		{
			OFFSET -0.000000 0.016865 9.269641
			CHANNELS 3 Yrotation Xrotation Zrotation
			JOINT Chest3
			{
				OFFSET -0.000000 0.000001 8.374491
				CHANNELS 3 Yrotation Xrotation Zrotation
				JOINT Chest4
				{
					OFFSET -0.000000 0.000001 8.374493
					CHANNELS 3 Yrotation Xrotation Zrotation
					JOINT Neck
					{
						OFFSET -0.000000 0.000002 12.152554
						CHANNELS 3 Yrotation Xrotation Zrotation
						JOINT Head
						{
							OFFSET -0.000000 0.040101 7.802319
							CHANNELS 3 Yrotation Xrotation Zrotation
							End Site
							{
								OFFSET -0.000000 0.020947 14.853096
							}
						}
					}
					JOINT RightCollar
					{
						OFFSET 2.894404 0.000001 6.791374
						CHANNELS 3 Yrotation Xrotation Zrotation
						JOINT RightShoulder
						{
							OFFSET 13.574684 0.000001 0.000000
							CHANNELS 3 Yrotation Xrotation Zrotation
							JOINT RightElbow
							{
								OFFSET 23.923903 0.000002 0.000000
								CHANNELS 3 Yrotation Xrotation Zrotation
								JOINT RightWrist
								{
									OFFSET 19.846718 0.012767 0.000000
									CHANNELS 3 Yrotation Xrotation Zrotation
									End Site
									{
										OFFSET 14.973145 0.000001 0.000000
									}
								}
							}
						}
					}
					JOINT LeftCollar
					{
						OFFSET -2.894404 0.000001 6.791374
						CHANNELS 3 Yrotation Xrotation Zrotation
						JOINT LeftShoulder
						{
							OFFSET -13.574684 -0.000001 0.000000
							CHANNELS 3 Yrotation Xrotation Zrotation
							JOINT LeftElbow
							{
								OFFSET -23.923903 -0.000002 0.000000
								CHANNELS 3 Yrotation Xrotation Zrotation
								JOINT LeftWrist
								{
									OFFSET -19.846718 0.012763 0.000000
									CHANNELS 3 Yrotation Xrotation Zrotation
									End Site
									{
										OFFSET -14.973145 -0.000001 0.000000
									}
								}
							}
						}
					}
				}
			}
		}
	}
	JOINT RightHip
	{
		OFFSET 9.469263 0.004643 0.045487
		CHANNELS 3 Yrotation Xrotation Zrotation
		JOINT RightKnee
		{
			OFFSET 0.000000 0.002661 -40.478676
			CHANNELS 3 Yrotation Xrotation Zrotation
			JOINT RightAnkle
			{
				OFFSET 0.000000 0.049106 -35.224068
				CHANNELS 3 Yrotation Xrotation Zrotation
				JOINT RightToe
				{
					OFFSET -0.000001 12.539529 -6.151390
					CHANNELS 3 Yrotation Xrotation Zrotation
					End Site
					{
						OFFSET -0.000001 5.044994 -1.291870
					}
				}
			}
		}
	}
	JOINT LeftHip
	{
		OFFSET -9.469263 0.004641 0.045487
		CHANNELS 3 Yrotation Xrotation Zrotation
		JOINT LeftKnee
		{
			OFFSET 0.000000 0.002661 -40.478676
			CHANNELS 3 Yrotation Xrotation Zrotation
			JOINT LeftAnkle
			{
				OFFSET 0.000000 0.049106 -35.224068
				CHANNELS 3 Yrotation Xrotation Zrotation
				JOINT LeftToe
				{
					OFFSET -0.000001 12.539529 -6.151390
					CHANNELS 3 Yrotation Xrotation Zrotation
					End Site
					{
						OFFSET -0.000001 5.044994 -1.291870
					}
				}
			}
		}
	}
}
MOTION
Frames: 12
Frame Time: 0.016667
14.806340 -1.878183 73.919945 5.708935 -1.550812 -99.452691 5.668194 -5.961721 -9.314545 3.034629 -2.431921 -4.652236 3.034629 -2.431921 -4.652236 2.257263 -1.847218 -3.476667 -5.077916 -22.316613 5.725431 -7.588920 -5.145727 8.936441 4.448130 3.560969 -2.120151 44.335448 41.149475 -2.275123 -1.930300 6.531294 -2.409872 -31.312828 16.646136 20.357587 -11.475882 0.045334 -9.098118 -61.780707 -8.955543 -50.678846 -27.257507 -41.983960 -33.154592 21.983917 4.875859 -32.000000 9.215486 53.987745 4.144015 39.001920 -58.297167 -44.787722 -12.816957 17.120865 1.949416 1.541386 -0.129203 0.548979 -12.453809 14.890180 8.558795 -26.279387 -43.666147 42.225298 45.719644 -16.045989 -4.755422 -31.662711 66.040006 -22.124813 
15.235720 -1.733375 73.857048 5.765003 -2.008453 -99.402311 5.916463 -5.982955 -9.283968 3.094309 -2.419220 -4.654496 3.094308 -2.419218 -4.654496 2.302109 -1.838158 -3.478204 -5.105829 -22.370427 5.726340 -7.641209 -5.244648 8.931874 4.380366 3.492369 -2.187818 44.346103 42.297234 -1.318865 -2.198381 8.033865 -2.652432 -30.961135 15.877466 19.398132 -11.537912 0.077008 -9.009470 -62.143144 -9.229593 -49.924315 -27.295464 -42.232576 -31.821305 21.811903 4.635920 -31.924697 9.304789 53.853159 3.975412 39.726822 -58.593529 -45.510001 -12.804965 17.644095 1.923630 1.426135 -0.114238 0.542835 -12.175153 14.558668 8.641682 -26.190437 -43.669494 42.202636 45.714565 -16.052924 -4.747144 -31.862566 66.387308 -22.405706 
15.682971 -1.602261 73.811836 5.854740 -2.489953 -99.327193 6.199352 -5.971678 -9.267619 3.160310 -2.404431 -4.656362 3.160310 -2.404432 -4.656361 2.351719 -1.827581 -3.479425 -5.129916 -22.416459 5.730676 -7.685330 -5.329224 8.934372 4.294052 3.428580 -2.285313 44.321343 43.514046 -0.288568 -2.380094 9.640331 -2.865972 -30.963877 15.493960 18.474799 -11.594625 0.093618 -8.930758 -62.584313 -9.422034 -49.140462 -27.194123 -42.532179 -30.569246 21.611504 4.092555 -31.931250 9.380135 53.673051 3.749119 40.375615 -58.803715 -46.132457 -12.762608 18.166691 1.902530 1.295360 -0.115579 0.529320 -11.852747 14.223000 8.689312 -26.124143 -43.632300 42.186814 45.744427 -16.090421 -4.805736 -32.038911 66.785549 -22.671063 
16.146088 -1.480293 73.781212 5.951970 -2.966392 -99.260475 6.479536 -5.956931 -9.237345 3.223093 -2.393080 -4.648844 3.223093 -2.393081 -4.648844 2.398922 -1.819508 -3.473613 -5.129181 -22.454216 5.731105 -7.685424 -5.399248 8.936434 4.233277 3.375267 -2.376174 44.315306 44.765490 0.821629 -2.586395 11.332842 -2.987883 -31.258699 15.356823 17.593621 -11.656794 0.184643 -8.865621 -63.025864 -9.582556 -48.301906 -26.886558 -42.943619 -29.434820 21.457779 3.445145 -32.088406 9.463604 53.445561 3.578926 41.005802 -58.933652 -46.710810 -12.715486 18.673940 1.861737 1.180342 -0.117730 0.512169 -11.501585 13.872937 8.709536 -26.099360 -43.539567 42.168833 45.753303 -16.200167 -4.876218 -32.196456 67.223535 -22.928696 
16.624605 -1.366746 73.763870 6.045027 -3.427942 -99.214652 6.747752 -5.952822 -9.189088 3.275788 -2.387988 -4.631533 3.275788 -2.387989 -4.631535 2.438544 -1.815996 -3.460458 -5.095980 -22.480376 5.727651 -7.627560 -5.448772 8.940064 4.198393 3.439689 -2.461821 44.292831 45.893247 1.874957 -2.782879 13.201490 -2.941377 -31.869704 15.401942 16.908191 -11.711103 0.334064 -8.811766 -63.417753 -9.781155 -47.430821 -26.490853 -43.320191 -28.353375 21.342190 3.001723 -32.205503 9.584833 53.170062 3.487075 41.571823 -59.014159 -47.216975 -12.646187 19.164152 1.801909 1.074446 -0.117745 0.490717 -11.127713 13.489691 8.741508 -26.110107 -43.383347 42.175418 45.775166 -16.349786 -5.011080 -32.327688 67.713444 -23.182009 
17.124168 -1.257231 73.764977 6.113587 -3.822926 -99.180316 6.954530 -5.964639 -9.132441 3.317887 -2.391623 -4.608014 3.317887 -2.391624 -4.608013 2.470178 -1.818915 -3.442638 -5.037603 -22.491309 5.718782 -7.525164 -5.470897 8.940405 4.167058 3.481958 -2.531476 44.315169 46.983956 2.943805 -2.869868 15.125054 -2.647603 -32.728409 15.700300 16.313278 -11.767510 0.504274 -8.772697 -63.772732 -9.978955 -46.536985 -26.274035 -43.524534 -27.215391 21.219292 2.847248 -32.120296 9.676683 52.839498 3.417812 42.017982 -59.093000 -47.608078 -12.563499 19.652452 1.795855 0.997448 -0.120567 0.469915 -10.780717 13.061734 8.796076 -26.108726 -43.162998 42.167074 45.776191 -16.590748 -5.294598 -32.310681 68.319527 -23.342378 
17.644123 -1.166419 73.796516 6.158449 -4.169579 -99.151575 7.103142 -5.987595 -9.056190 3.347301 -2.401580 -4.576758 3.347301 -2.401579 -4.576761 2.492280 -1.826432 -3.419030 -4.951057 -22.495238 5.697918 -7.374984 -5.481079 8.926618 4.142529 3.465073 -2.668159 44.468749 48.050893 4.124194 -2.787483 17.059099 -2.026802 -33.656351 16.119615 15.725218 -11.819776 0.645095 -8.788456 -64.097589 -10.074257 -45.621432 -26.279853 -43.560566 -26.050108 21.048299 2.760011 -31.927002 9.790099 52.420373 3.322197 42.169994 -59.179225 -47.712478 -12.483438 20.127910 1.800792 0.951590 -0.135319 0.448008 -10.431413 12.610752 8.868263 -26.061582 -42.917856 42.123289 45.577456 -16.996349 -5.698590 -32.050270 69.083190 -23.338686 
18.169813 -1.113843 73.858620 6.209670 -4.545285 -99.105335 7.290573 -5.996721 -8.996297 3.371658 -2.411889 -4.547319 3.371657 -2.411889 -4.547319 2.510579 -1.834187 -3.396792 -4.866439 -22.507843 5.676010 -7.228919 -5.507331 8.910651 4.127383 3.482692 -2.811221 44.661378 49.067113 5.297250 -2.517556 19.061308 -1.045000 -34.495935 16.517617 15.154675 -11.883225 0.731047 -8.818225 -64.391622 -10.046792 -44.685215 -26.222951 -43.533228 -25.035930 20.859435 2.530385 -31.880605 9.989600 51.924006 3.256139 42.102474 -59.183931 -47.619662 -12.413307 20.543737 1.822950 0.919824 -0.137512 0.417679 -10.007647 12.165559 8.939432 -25.995109 -42.658688 42.067866 45.527821 -17.501620 -6.311009 -31.813973 69.981667 -23.415605 
18.702232 -1.085205 73.943214 6.256912 -4.916976 -99.052360 7.478746 -6.006036 -8.927567 3.388942 -2.419170 -4.516997 3.388944 -2.419171 -4.516995 2.523604 -1.839607 -3.373940 -4.782751 -22.534961 5.646760 -7.087150 -5.560573 8.881520 4.149019 3.513962 -2.958105 44.854904 50.056083 6.448715 -2.011069 21.068610 0.245715 -35.239552 16.946060 14.662154 -11.946402 0.850224 -8.859686 -64.711391 -9.980450 -43.648505 -25.880471 -43.574992 -24.235620 20.765740 2.210458 -32.023321 10.210183 51.364710 3.256813 41.961452 -59.089688 -47.486624 -12.335221 20.918472 1.908899 0.888049 -0.128106 0.384855 -9.545024 11.741505 9.038784 -25.906901 -42.417722 41.993666 45.303835 -18.180543 -6.901769 -31.634165 70.989544 -23.599345 
19.240347 -1.086778 74.051132 6.271270 -5.264263 -99.023434 7.630027 -6.034800 -8.814352 3.395753 -2.421908 -4.478810 3.395752 -2.421908 -4.478814 2.528839 -1.841498 -3.345268 -4.690136 -22.581761 5.603731 -6.933888 -5.650721 8.830400 4.191063 3.575501 -3.183698 45.053031 50.903750 7.611014 -1.300499 23.029374 1.758799 -35.975470 17.418907 14.202276 -11.970074 0.968332 -8.912444 -65.110513 -9.894849 -42.546826 -25.312097 -43.708891 -23.518911 20.822685 1.997140 -32.186915 10.468417 50.713622 3.346990 41.736954 -58.885813 -47.338829 -12.241670 21.264076 2.029250 0.841459 -0.118173 0.346109 -9.065842 11.328306 9.203087 -25.720430 -42.222122 41.887986 45.062166 -19.030169 -7.779169 -31.211314 72.236047 -23.644382 
19.792891 -1.113391 74.184387 6.230767 -5.579345 -99.032497 7.734931 -6.102281 -8.642853 3.392980 -2.422216 -4.429148 3.392980 -2.422216 -4.429147 2.526950 -1.841429 -3.308029 -4.583270 -22.642919 5.540907 -6.760919 -5.768123 8.747725 4.247516 3.655206 -3.471454 45.285650 51.594102 8.818765 -0.443900 24.931517 3.473779 -36.764456 17.975410 13.683904 -11.969171 1.064620 -8.985990 -65.531970 -9.773072 -41.449044 -24.858192 -43.781905 -22.679254 20.962132 2.034031 -32.130217 10.742908 49.943112 3.528768 41.432740 -58.584991 -47.201590 -12.114742 21.608130 2.263669 0.791532 -0.119074 0.298530 -8.549890 10.921986 9.471621 -25.436494 -42.091492 41.757929 44.405495 -20.207156 -8.729791 -30.559622 73.755675 -23.584578 
20.361223 -1.193794 74.338142 6.133582 -5.933848 -99.090738 7.889172 -6.231560 -8.414984 3.383637 -2.419767 -4.376012 3.383638 -2.419768 -4.376011 2.520169 -1.839228 -3.268235 -4.476350 -22.708369 5.466719 -6.591101 -5.893556 8.644563 4.312517 3.734378 -3.690372 45.493353 52.196159 9.991784 0.566189 26.784259 5.406801 -37.648238 18.622087 13.137758 -12.019090 1.200396 -9.057436 -65.916325 -9.626874 -40.321861 -24.678069 -43.678664 -21.666361 21.019214 2.192394 -31.964210 11.122810 49.006850 3.761923 40.984571 -58.156752 -46.936828 -12.049269 21.919067 2.542724 0.755113 -0.120981 0.238180 -7.937405 10.502265 9.881954 -25.025555 -42.056985 41.637960 44.020972 -21.507581 -10.212940 -29.600800 75.602858 -23.379649 
